# xmcd
#
# Track frame offsets:
#	150
#	23982
#	46370
#	67297
#	88277
#	109332
#	131192
#	156582
#	178235
#	198350
#	219652
#	242887
#
# Disc length: 3606 seconds
#
# Revision: 1
# Processed by: cddbd v1.5.1PL0 Copyright (c) Steve Scherf et al.
# Submitted via: CDex 1.50Beta5
#
DISCID=c40e140c
DTITLE=ZNX - ZNX
DYEAR=1994
DGENRE=Rock
TTITLE0=Crazy Driver
TTITLE1=あらかじめ失なわれた時を求めて
TTITLE2=裸足の天使達
TTITLE3=傷だらけのファイティング・ポーズ
TTITLE4=君の瞳の中から
TTITLE5=風のにほいがする頃
TTITLE6=Madness City
TTITLE7=サヨナラに接吻を
TTITLE8=だきしめて眠れ
TTITLE9=So,ファッション
TTITLE10=ハーフ・ムーン
TTITLE11=Rock’n Roll Paradise
EXTD=
EXTT0=
EXTT1=
EXTT2=
EXTT3=
EXTT4=
EXTT5=
EXTT6=
EXTT7=
EXTT8=
EXTT9=
EXTT10=
EXTT11=
PLAYORDER=
